<mxfile host="app.diagrams.net" modified="2023-04-26T05:52:07.928Z" agent="Mozilla/5.0 (Windows NT 10.0; Win64; x64) AppleWebKit/537.36 (KHTML, like Gecko) Chrome/112.0.0.0 Safari/537.36 Edg/112.0.1722.58" etag="6mqVCrdBNF8kkhLQ_22t" version="21.2.2" type="device">
  <diagram name="Страница 1" id="BJgz8cBtAIWn2qpnvxWe">
    <mxGraphModel dx="993" dy="581" grid="1" gridSize="10" guides="1" tooltips="1" connect="1" arrows="1" fold="1" page="1" pageScale="1" pageWidth="827" pageHeight="1169" math="0" shadow="0">
      <root>
        <mxCell id="0" />
        <mxCell id="1" parent="0" />
        <mxCell id="TP9HltQhjyIxLckX_Cgt-1" value="def" style="rounded=0;whiteSpace=wrap;html=1;" vertex="1" parent="1">
          <mxGeometry x="40" y="40" width="160" height="20" as="geometry" />
        </mxCell>
        <mxCell id="TP9HltQhjyIxLckX_Cgt-2" value="- name: string&lt;br&gt;- number: int" style="rounded=0;whiteSpace=wrap;html=1;align=left;" vertex="1" parent="1">
          <mxGeometry x="40" y="60" width="160" height="30" as="geometry" />
        </mxCell>
        <mxCell id="TP9HltQhjyIxLckX_Cgt-3" value="+ def (const string&amp;amp; name, int number)&lt;br&gt;+ get_number(): int&lt;br&gt;+get_name(): string" style="rounded=0;whiteSpace=wrap;html=1;align=left;" vertex="1" parent="1">
          <mxGeometry x="40" y="90" width="160" height="80" as="geometry" />
        </mxCell>
        <mxCell id="TP9HltQhjyIxLckX_Cgt-4" value="define_table" style="rounded=0;whiteSpace=wrap;html=1;" vertex="1" parent="1">
          <mxGeometry x="320" y="40" width="160" height="20" as="geometry" />
        </mxCell>
        <mxCell id="TP9HltQhjyIxLckX_Cgt-5" value="- vector _defs: def*" style="rounded=0;whiteSpace=wrap;html=1;align=left;" vertex="1" parent="1">
          <mxGeometry x="320" y="60" width="160" height="30" as="geometry" />
        </mxCell>
        <mxCell id="TP9HltQhjyIxLckX_Cgt-6" value="+ define_table&lt;br&gt;+ push_defs(def* _def)&lt;br&gt;+get_number_by_name&lt;br&gt;&amp;nbsp; &amp;nbsp; &amp;nbsp; &amp;nbsp; (const string&amp;amp; name):int&lt;br&gt;+print_def()" style="rounded=0;whiteSpace=wrap;html=1;align=left;" vertex="1" parent="1">
          <mxGeometry x="320" y="90" width="160" height="80" as="geometry" />
        </mxCell>
        <mxCell id="TP9HltQhjyIxLckX_Cgt-7" value="" style="endArrow=diamondThin;endFill=0;endSize=24;html=1;rounded=0;" edge="1" parent="1">
          <mxGeometry width="160" relative="1" as="geometry">
            <mxPoint x="200" y="100" as="sourcePoint" />
            <mxPoint x="320" y="100" as="targetPoint" />
          </mxGeometry>
        </mxCell>
      </root>
    </mxGraphModel>
  </diagram>
</mxfile>
